HIERARCHY
ROOT Hips
{
	OFFSET	0.000000	0.000000	0.000000
	CHANNELS	6	Xposition	Yposition	Zposition	Zrotation	Xrotation	Yrotation
	JOINT LeftHip
	{
		OFFSET	15.500000	-8.200000	0.000000
		CHANNELS	3	Zrotation	Xrotation	Yrotation
		JOINT LeftKnee
		{
			OFFSET	0.000000	-41.000000	0.000000
			CHANNELS	3	Zrotation	Xrotation	Yrotation
			JOINT LeftAnkle
			{
				OFFSET	0.000000	-41.500000	0.000000
				CHANNELS	3	Zrotation	Xrotation	Yrotation
				End Site
				{
					OFFSET	0.000000	0.000000	22.875000
				}
			}
		}
	}
	JOINT RightHip
	{
		OFFSET	-15.500000	-8.200000	0.000000
		CHANNELS	3	Zrotation	Xrotation	Yrotation
		JOINT RightKnee
		{
			OFFSET	0.000000	-41.000000	0.000000
			CHANNELS	3	Zrotation	Xrotation	Yrotation
			JOINT RightAnkle
			{
				OFFSET	0.000000	-41.500000	0.000000
				CHANNELS	3	Zrotation	Xrotation	Yrotation
				End Site
				{
					OFFSET	0.000000	0.000000	22.875000
				}
			}
		}
	}
	JOINT Chest
	{
		OFFSET	0.000000	16.666667	0.000000
		CHANNELS	3	Zrotation	Xrotation	Yrotation
		JOINT LeftCollar
		{
			OFFSET	4.625000	33.333333	1.541667
			CHANNELS	3	Zrotation	Xrotation	Yrotation
			JOINT LeftShoulder
			{
				OFFSET	13.875000	0.000000	0.000000
				CHANNELS	3	Zrotation	Xrotation	Yrotation
				JOINT LeftElbow
				{
					OFFSET	0.000000	-28.000000	0.000000
					CHANNELS	3	Zrotation	Xrotation	Yrotation
					JOINT LeftWrist
					{
						OFFSET	0.000000	-25.000000	0.000000
						CHANNELS	3	Zrotation	Xrotation	Yrotation
						End Site
						{
							OFFSET	0.000000	-7.500000	0.000000
						}
					}
				}
			}
		}
		JOINT RightCollar
		{
			OFFSET	-4.625000	33.333333	1.541667
			CHANNELS	3	Zrotation	Xrotation	Yrotation
			JOINT RightShoulder
			{
				OFFSET	-13.875000	0.000000	0.000000
				CHANNELS	3	Zrotation	Xrotation	Yrotation
				JOINT RightElbow
				{
					OFFSET	0.000000	-28.000000	0.000000
					CHANNELS	3	Zrotation	Xrotation	Yrotation
					JOINT RightWrist
					{
						OFFSET	0.000000	-25.000000	0.000000
						CHANNELS	3	Zrotation	Xrotation	Yrotation
						End Site
						{
							OFFSET	0.000000	-7.500000	0.000000
						}
					}
				}
			}
		}
		JOINT Neck
		{
			OFFSET	0.000000	33.333333	0.000000
			CHANNELS	3	Zrotation	Xrotation	Yrotation
			JOINT Head
			{
				OFFSET	0.000000	12.000000	0.000000
				CHANNELS	3	Zrotation	Xrotation	Yrotation
				End Site
				{
					OFFSET	0.000000	15.000000	0.000000
				}
			}
		}
	}
}
MOTION
Frames:	31
Frame Time:	0.012000
-2.79	102.14	-87.89	2.30	1.61	-11.23	-2.94	-9.41	-2.89	0.00	3.77	0.00	-3.65	35.68	2.48	-0.61	-8.24	-3.96	0.00	9.87	0.00	-12.28	25.08	9.59	1.97	-1.47	-0.07	0.00	0.00	0.00	1.34	-7.21	0.74	-4.62	-0.23	-8.67	2.11	0.61	0.00	0.00	0.00	0.00	2.68	-2.20	-11.61	-4.25	-3.99	9.08	0.30	0.09	0.00	0.00	0.00	0.00	5.23	-5.12	25.74
-2.74	102.13	-88.13	2.34	1.69	-11.22	-2.95	-9.78	-2.72	0.00	4.18	0.00	-3.68	35.56	2.52	-0.68	-8.39	-3.79	0.00	9.84	0.00	-12.29	25.14	9.59	1.99	-1.45	-0.05	0.00	0.00	0.00	1.37	-7.19	0.73	-4.62	-0.37	-8.71	2.11	0.61	0.00	0.00	0.00	0.00	2.71	-2.19	-11.59	-4.26	-3.99	9.08	0.28	0.09	0.00	0.00	0.00	0.00	5.14	-5.17	25.43
-2.77	102.12	-88.23	2.34	1.69	-11.22	-2.97	-10.14	-2.55	0.00	4.59	0.00	-3.72	35.45	2.57	-0.75	-8.55	-3.64	0.00	9.84	0.00	-12.31	25.18	9.60	1.98	-1.46	-0.03	0.00	0.00	0.00	1.33	-7.19	0.76	-4.58	-0.39	-8.74	2.10	0.61	0.00	0.00	0.00	0.00	2.68	-2.18	-11.54	-4.21	-4.01	9.10	0.27	0.09	0.00	0.00	0.00	0.00	5.15	-5.16	25.41
-2.74	102.10	-88.45	2.34	1.69	-11.22	-2.97	-10.49	-2.37	0.00	4.99	0.00	-3.76	35.36	2.60	-0.82	-8.69	-3.50	0.00	9.84	0.00	-12.29	25.20	9.63	1.93	-1.47	0.03	0.00	0.00	0.00	1.21	-7.19	0.82	-4.41	-0.40	-8.79	2.09	0.62	0.00	0.00	0.00	0.00	2.54	-2.20	-11.50	-4.03	-4.00	9.15	0.24	0.10	0.00	0.00	0.00	0.00	5.19	-5.16	25.35
-2.72	102.07	-88.66	2.36	1.76	-11.19	-2.98	-10.85	-2.20	0.00	5.39	0.00	-3.78	35.28	2.61	-0.89	-8.84	-3.37	0.00	9.86	0.00	-12.27	25.22	9.64	1.91	-1.47	0.06	0.00	0.00	0.00	1.16	-7.18	0.85	-4.36	-0.41	-8.84	2.08	0.63	0.00	0.00	0.00	0.00	2.49	-2.21	-11.47	-3.96	-4.00	9.18	0.23	0.10	0.00	0.00	0.00	0.00	5.16	-5.16	25.06
-2.77	102.05	-88.76	2.36	1.76	-11.19	-2.98	-11.21	-2.04	0.00	5.79	0.00	-3.80	35.18	2.61	-0.97	-9.01	-3.25	0.00	9.89	0.00	-12.26	25.20	9.65	1.89	-1.47	0.09	0.00	0.00	0.00	1.09	-7.19	0.91	-4.28	-0.41	-8.91	2.07	0.64	0.00	0.00	0.00	0.00	2.41	-2.22	-11.45	-3.88	-4.00	9.21	0.21	0.10	0.00	0.00	0.00	0.00	5.18	-5.15	25.04
-2.76	102.02	-89.00	2.36	1.76	-11.19	-2.97	-11.57	-1.88	0.00	6.19	0.00	-3.81	35.08	2.61	-1.05	-9.15	-3.14	0.00	9.93	0.00	-12.26	25.22	9.64	1.88	-1.47	0.11	0.00	0.00	0.00	1.07	-7.18	0.96	-4.24	-0.40	-8.96	2.07	0.64	0.00	0.00	0.00	0.00	2.40	-2.25	-11.43	-3.85	-3.99	9.26	0.21	0.09	0.00	0.00	0.00	0.00	5.18	-5.16	25.01
-2.76	101.99	-89.23	2.36	1.74	-11.13	-2.96	-11.91	-1.74	0.00	6.56	0.00	-3.84	34.97	2.66	-1.14	-9.32	-3.04	0.00	10.00	0.00	-12.27	25.20	9.64	1.86	-1.47	0.13	0.00	0.00	0.00	1.02	-7.17	1.03	-4.18	-0.40	-9.02	2.06	0.64	0.00	0.00	0.00	0.00	2.35	-2.27	-11.42	-3.78	-3.99	9.30	0.21	0.08	0.00	0.00	0.00	0.00	5.17	-5.11	24.70
-2.79	101.95	-89.48	2.36	1.74	-11.13	-2.94	-12.23	-1.61	0.00	6.93	0.00	-3.85	34.89	2.72	-1.24	-9.48	-2.93	0.00	10.06	0.00	-12.27	25.18	9.64	1.84	-1.47	0.15	0.00	0.00	0.00	0.97	-7.16	1.09	-4.12	-0.40	-9.08	2.04	0.64	0.00	0.00	0.00	0.00	2.28	-2.29	-11.42	-3.71	-3.98	9.35	0.20	0.07	0.00	0.00	0.00	0.00	5.19	-5.11	24.68
-2.81	101.90	-89.67	2.36	1.74	-11.13	-2.91	-12.58	-1.45	0.00	7.37	0.00	-3.87	34.83	2.79	-1.33	-9.62	-2.83	0.00	10.10	0.00	-12.28	25.19	9.62	1.82	-1.47	0.17	0.00	0.00	0.00	0.92	-7.14	1.15	-4.06	-0.40	-9.13	2.03	0.64	0.00	0.00	0.00	0.00	2.22	-2.29	-11.43	-3.66	-3.98	9.39	0.19	0.07	0.00	0.00	0.00	0.00	5.20	-5.11	24.66
-2.85	102.91	-89.84	2.39	1.72	-11.07	-2.88	-12.87	-1.32	0.00	7.71	0.00	-3.89	34.77	2.85	-1.42	-9.75	-2.74	0.00	10.15	0.00	-12.30	25.17	9.60	1.77	-1.46	0.21	0.00	0.00	0.00	0.81	-7.07	1.24	-3.92	-0.45	-9.22	2.01	0.64	0.00	0.00	0.00	0.00	2.07	-2.29	-11.42	-3.50	-3.95	9.47	0.18	0.07	0.00	0.00	0.00	0.00	5.19	-5.09	24.39
-2.71	102.92	-90.00	2.39	1.72	-11.07	-2.84	-13.16	-1.20	0.00	8.04	0.00	-3.91	34.74	2.94	-1.51	-9.91	-2.60	0.00	10.21	0.00	-12.33	25.12	9.58	1.74	-1.46	0.23	0.00	0.00	0.00	0.75	-7.01	1.29	-3.84	-0.47	-9.24	1.97	0.64	0.00	0.00	0.00	0.00	2.01	-2.31	-11.41	-3.44	-3.94	9.53	0.17	0.07	0.00	0.00	0.00	0.00	5.22	-5.09	24.37
-2.49	102.93	-90.18	2.39	1.72	-11.07	-2.80	-13.43	-1.08	0.00	8.34	0.00	-3.94	34.70	3.00	-1.60	-10.03	-2.51	0.00	10.25	0.00	-12.34	25.11	9.57	1.76	-1.46	0.21	0.00	0.00	0.00	0.79	-6.97	1.33	-3.89	-0.49	-9.23	1.92	0.63	0.00	0.00	0.00	0.00	2.05	-2.33	-11.43	-3.53	-4.00	9.57	0.18	0.08	0.00	0.00	0.00	0.00	5.20	-5.09	24.40
-2.30	102.93	-90.31	2.41	1.69	-11.04	-2.75	-13.67	-0.97	0.00	8.62	0.00	-3.96	34.69	3.07	-1.69	-10.16	-2.43	0.00	10.32	0.00	-12.36	25.05	9.57	1.72	-1.47	0.23	0.00	0.00	0.00	0.68	-6.96	1.40	-3.75	-0.49	-9.17	1.84	0.62	0.00	0.00	0.00	0.00	1.96	-2.35	-11.43	-3.44	-4.01	9.62	0.17	0.08	0.00	0.00	0.00	0.00	5.14	-5.00	24.04
-2.13	102.94	-90.49	2.41	1.69	-11.04	-2.70	-13.91	-0.86	0.00	8.88	0.00	-3.97	34.67	3.10	-1.78	-10.28	-2.36	0.00	10.39	0.00	-12.37	25.04	9.56	1.68	-1.47	0.25	0.00	0.00	0.00	0.59	-6.91	1.48	-3.62	-0.51	-9.14	1.78	0.62	0.00	0.00	0.00	0.00	1.86	-2.34	-11.42	-3.35	-4.01	9.67	0.15	0.08	0.00	0.00	0.00	0.00	5.18	-5.00	24.02
-1.95	102.95	-90.58	2.41	1.69	-11.04	-2.65	-14.12	-0.75	0.00	9.10	0.00	-3.99	34.64	3.17	-1.87	-10.42	-2.26	0.00	10.49	0.00	-12.40	24.96	9.55	1.65	-1.47	0.26	0.00	0.00	0.00	0.52	-6.85	1.57	-3.53	-0.56	-9.11	1.72	0.61	0.00	0.00	0.00	0.00	1.78	-2.34	-11.44	-3.28	-4.01	9.75	0.14	0.07	0.00	0.00	0.00	0.00	5.21	-5.01	24.01
-1.75	102.95	-90.70	2.45	1.59	-10.94	-2.59	-14.32	-0.68	0.00	9.32	0.00	-4.01	34.67	3.23	-1.95	-10.51	-2.19	0.00	10.55	0.00	-12.42	24.93	9.55	1.59	-1.45	0.27	0.00	0.00	0.00	0.39	-6.77	1.68	-3.37	-0.61	-9.09	1.68	0.61	0.00	0.00	0.00	0.00	1.60	-2.37	-11.41	-3.16	-4.00	9.80	0.13	0.07	0.00	0.00	0.00	0.00	5.14	-4.94	23.63
-1.66	102.96	-90.96	2.45	1.59	-10.94	-2.54	-14.48	-0.61	0.00	9.48	0.00	-4.03	34.65	3.28	-2.02	-10.63	-2.06	0.00	10.64	0.00	-12.40	24.86	9.50	1.55	-1.45	0.29	0.00	0.00	0.00	0.33	-6.71	1.76	-3.28	-0.67	-9.09	1.65	0.60	0.00	0.00	0.00	0.00	1.51	-2.38	-11.42	-3.09	-4.00	9.85	0.12	0.07	0.00	0.00	0.00	0.00	5.17	-4.95	23.61
-1.50	102.96	-91.04	2.45	1.59	-10.94	-2.48	-14.61	-0.61	0.00	9.56	0.00	-4.03	34.67	3.34	-2.10	-10.73	-1.97	0.00	10.71	0.00	-12.42	24.79	9.45	1.53	-1.45	0.30	0.00	0.00	0.00	0.28	-6.66	1.84	-3.19	-0.69	-9.10	1.63	0.60	0.00	0.00	0.00	0.00	1.44	-2.39	-11.42	-3.03	-3.98	9.89	0.12	0.08	0.00	0.00	0.00	0.00	5.19	-4.94	23.59
-1.34	102.97	-91.13	2.51	1.52	-10.83	-2.43	-14.73	-0.59	0.00	9.66	0.00	-4.02	34.72	3.37	-2.18	-10.83	-1.90	0.00	10.81	0.00	-12.42	24.77	9.41	1.52	-1.46	0.30	0.00	0.00	0.00	0.29	-6.63	1.90	-3.20	-0.71	-9.11	1.64	0.61	0.00	0.00	0.00	0.00	1.44	-2.41	-11.44	-3.06	-3.99	9.94	0.12	0.08	0.00	0.00	0.00	0.00	5.05	-4.86	23.26
-1.30	102.98	-91.34	2.51	1.52	-10.83	-2.37	-14.83	-0.59	0.00	9.75	0.00	-4.03	34.82	3.43	-2.25	-10.89	-1.87	0.00	10.90	0.00	-12.42	24.76	9.42	1.50	-1.45	0.32	0.00	0.00	0.00	0.23	-6.58	1.98	-3.10	-0.73	-9.12	1.64	0.62	0.00	0.00	0.00	0.00	1.35	-2.40	-11.45	-2.99	-3.96	10.00	0.11	0.08	0.00	0.00	0.00	0.00	5.07	-4.88	23.24
-1.17	102.99	-91.33	2.51	1.52	-10.83	-2.31	-14.91	-0.61	0.00	9.82	0.00	-4.04	34.91	3.47	-2.31	-11.01	-1.77	0.00	11.02	0.00	-12.40	24.78	9.43	1.48	-1.44	0.34	0.00	0.00	0.00	0.18	-6.54	2.04	-3.02	-0.74	-9.12	1.65	0.62	0.00	0.00	0.00	0.00	1.30	-2.40	-11.47	-2.93	-3.96	10.05	0.11	0.09	0.00	0.00	0.00	0.00	5.09	-4.89	23.22
-1.03	103.00	-91.37	2.55	1.47	-10.68	-2.25	-14.97	-0.64	0.00	9.88	0.00	-4.05	34.99	3.52	-2.37	-11.09	-1.70	0.00	11.07	0.00	-12.38	24.76	9.45	1.45	-1.44	0.36	0.00	0.00	0.00	0.11	-6.53	2.09	-2.91	-0.72	-9.12	1.65	0.62	0.00	0.00	0.00	0.00	1.24	-2.39	-11.48	-2.86	-3.96	10.10	0.10	0.09	0.00	0.00	0.00	0.00	5.02	-4.85	22.96
-0.97	103.01	-91.54	2.55	1.47	-10.68	-2.19	-15.05	-0.68	0.00	9.93	0.00	-4.04	35.08	3.56	-2.42	-11.15	-1.62	0.00	11.09	0.00	-12.37	24.75	9.42	1.44	-1.42	0.38	0.00	0.00	0.00	0.09	-6.54	2.11	-2.85	-0.61	-9.12	1.67	0.63	0.00	0.00	0.00	0.00	1.19	-2.39	-11.51	-2.82	-3.97	10.14	0.11	0.09	0.00	0.00	0.00	0.00	5.03	-4.86	22.94
-0.85	103.02	-91.60	2.55	1.47	-10.68	-2.13	-15.11	-0.73	0.00	9.92	0.00	-4.05	35.18	3.60	-2.48	-11.23	-1.56	0.00	11.16	0.00	-12.35	24.66	9.41	1.43	-1.40	0.40	0.00	0.00	0.00	0.06	-6.52	2.11	-2.78	-0.60	-9.13	1.69	0.63	0.00	0.00	0.00	0.00	1.14	-2.36	-11.53	-2.76	-3.97	10.18	0.11	0.09	0.00	0.00	0.00	0.00	5.04	-4.89	22.92
-0.73	103.02	-91.66	2.60	1.43	-10.57	-2.08	-15.17	-0.76	0.00	9.93	0.00	-4.05	35.26	3.65	-2.52	-11.33	-1.48	0.00	11.25	0.00	-12.40	24.62	9.41	1.41	-1.38	0.42	0.00	0.00	0.00	0.02	-6.50	2.10	-2.71	-0.63	-9.16	1.72	0.65	0.00	0.00	0.00	0.00	1.08	-2.34	-11.54	-2.69	-3.94	10.18	0.10	0.09	0.00	0.00	0.00	0.00	4.96	-4.93	22.57
-0.71	103.03	-91.84	2.60	1.43	-10.57	-2.03	-15.22	-0.80	0.00	9.95	0.00	-4.06	35.33	3.68	-2.57	-11.39	-1.44	0.00	11.32	0.00	-12.50	24.60	9.48	1.40	-1.35	0.44	0.00	0.00	0.00	0.00	-6.47	2.08	-2.65	-0.67	-9.14	1.74	0.64	0.00	0.00	0.00	0.00	1.02	-2.30	-11.57	-2.64	-3.97	10.21	0.09	0.10	0.00	0.00	0.00	0.00	4.97	-4.95	22.56
-0.61	103.03	-91.87	2.60	1.43	-10.57	-1.99	-15.27	-0.83	0.00	9.96	0.00	-4.06	35.40	3.68	-2.60	-11.46	-1.32	0.00	11.39	0.00	-12.62	24.57	9.52	1.37	-1.33	0.46	0.00	0.00	0.00	-0.05	-6.46	2.05	-2.57	-0.70	-9.14	1.75	0.64	0.00	0.00	0.00	0.00	0.95	-2.27	-11.58	-2.55	-3.97	10.24	0.09	0.10	0.00	0.00	0.00	0.00	4.99	-4.98	22.54
-0.52	103.04	-91.90	2.71	1.38	-10.40	-1.96	-15.32	-0.85	0.00	9.99	0.00	-4.03	35.48	3.66	-2.63	-11.53	-1.20	0.00	11.45	0.00	-12.76	24.46	9.54	1.38	-1.32	0.49	0.00	0.00	0.00	-0.04	-6.47	1.98	-2.55	-0.72	-9.12	1.76	0.63	0.00	0.00	0.00	0.00	1.00	-2.24	-11.63	-2.54	-3.97	10.26	0.09	0.10	0.00	0.00	0.00	0.00	4.80	-5.01	22.09
-0.61	103.05	-92.09	2.71	1.38	-10.40	-1.93	-15.38	-0.87	0.00	10.04	0.00	-4.01	35.54	3.65	-2.67	-11.61	-1.08	0.00	11.50	0.00	-12.92	24.36	9.57	1.38	-1.30	0.51	0.00	0.00	0.00	-0.06	-6.47	1.92	-2.49	-0.80	-9.07	1.76	0.63	0.00	0.00	0.00	0.00	0.98	-2.21	-11.64	-2.50	-3.97	10.28	0.08	0.09	0.00	0.00	0.00	0.00	4.79	-5.03	22.07
-0.51	103.05	-92.19	2.71	1.38	-10.40	-1.91	-15.44	-0.87	0.00	10.09	0.00	-3.98	35.60	3.64	-2.70	-11.67	-0.97	0.00	11.52	0.00	-13.13	24.31	9.63	1.36	-1.28	0.54	0.00	0.00	0.00	-0.12	-6.48	1.87	-2.38	-0.83	-9.01	1.76	0.64	0.00	0.00	0.00	0.00	0.92	-2.18	-11.62	-2.40	-3.95	10.29	0.08	0.09	0.00	0.00	0.00	0.00	4.81	-5.06	22.04
